<svg width="31" height="39" viewBox="0 0 31 39" fill="none" xmlns="http://www.w3.org/2000/svg">
<g id="file attachment 1">
<path id="Rectangle 38 (Stroke)" fill-rule="evenodd" clip-rule="evenodd" d="M5.25 4.12504C4.30651 4.12504 3.54167 4.88989 3.54167 5.83337V33.1667C3.54167 34.1102 4.30651 34.875 5.25 34.875H25.75C26.6935 34.875 27.4583 34.1102 27.4583 33.1667V14.2382C27.4583 13.7394 27.2404 13.2656 26.8618 12.9411L17.0562 4.53631C16.7466 4.27092 16.3522 4.12504 15.9444 4.12504H5.25ZM0.125 5.83337C0.125 3.00292 2.41954 0.708374 5.25 0.708374H15.9444C17.1678 0.708374 18.3509 1.14601 19.2797 1.94218L29.0853 10.347C30.2212 11.3206 30.875 12.742 30.875 14.2382V33.1667C30.875 35.9972 28.5805 38.2917 25.75 38.2917H5.25C2.41954 38.2917 0.125 35.9972 0.125 33.1667V5.83337Z" fill="black"/>
<path id="Vector 84 (Stroke)" fill-rule="evenodd" clip-rule="evenodd" d="M15.5 9.25004V3.27087H18.9167V9.25004C18.9167 10.1935 19.6815 10.9584 20.625 10.9584H28.3125V14.375H20.625C17.7945 14.375 15.5 12.0805 15.5 9.25004Z" fill="black"/>
<path id="Vector 830 (Stroke)" fill-rule="evenodd" clip-rule="evenodd" d="M12.7465 17.928C15.3299 15.4685 19.4852 15.4685 22.0686 17.928C24.6994 20.4327 24.6994 24.53 22.0686 27.0347L16.844 32.0089C15.2224 33.5527 12.6265 33.5527 11.005 32.0089C9.336 30.4199 9.336 27.8072 11.005 26.2182L16.2296 21.2441L18.5855 23.7186L13.3609 28.6928C13.1063 28.9352 13.1063 29.2919 13.3609 29.5343C13.663 29.8219 14.186 29.8219 14.4881 29.5343L19.7127 24.5602C20.9291 23.402 20.9291 21.5607 19.7127 20.4025C18.4487 19.1992 16.3664 19.1992 15.1024 20.4025L8.1363 27.0347L5.7804 24.5602L12.7465 17.928Z" fill="black"/>
</g>
</svg>
