<svg width="51" height="55" viewBox="0 0 51 55" fill="none" xmlns="http://www.w3.org/2000/svg">
<g id="user">
<path id="Ellipse 328 (Stroke)" fill-rule="evenodd" clip-rule="evenodd" d="M25.5 3.98108C19.2695 3.98108 14.2187 9.37974 14.2187 16.0393C14.2187 22.6989 19.2695 28.0975 25.5 28.0975C31.7305 28.0975 36.7812 22.6989 36.7812 16.0393C36.7812 9.37974 31.7305 3.98108 25.5 3.98108ZM10.6562 16.0393C10.6562 7.27671 17.302 0.17322 25.5 0.17322C33.698 0.17322 40.3437 7.27671 40.3437 16.0393C40.3437 24.8019 33.698 31.9054 25.5 31.9054C17.302 31.9054 10.6562 24.8019 10.6562 16.0393Z" fill="black"/>
<path id="Ellipse 328 (Stroke)_2" fill-rule="evenodd" clip-rule="evenodd" d="M25.5 31.9054C14.8946 31.9054 6.21468 39.0317 4.05525 48.2816C3.77647 49.4757 4.70046 50.9447 6.5 50.9447H25.5C26.4838 50.9447 27.2812 51.7971 27.2812 52.8487C27.2812 53.9002 26.4838 54.7526 25.5 54.7526H6.5C3.05283 54.7526 -0.39277 51.6067 0.598738 47.3596C3.20144 36.2111 13.4634 28.0975 25.5 28.0975C37.5366 28.0975 47.7986 36.2111 50.4013 47.3596C51.3928 51.6067 47.9472 54.7526 44.5 54.7526H37.375C36.3912 54.7526 35.5937 53.9002 35.5937 52.8487C35.5937 51.7971 36.3912 50.9447 37.375 50.9447H44.5C46.2995 50.9447 47.2235 49.4757 46.9447 48.2816C44.7853 39.0317 36.1054 31.9054 25.5 31.9054Z" fill="black"/>
</g>
</svg>
